<?xml version="1.0" encoding="UTF-8" standalone="no"?>
<!DOCTYPE svg PUBLIC "-//W3C//DTD SVG 1.1//EN" "http://www.w3.org/Graphics/SVG/1.1/DTD/svg11.dtd">
<!-- Created with Vectornator (http://vectornator.io/) -->
<svg height="100%" stroke-miterlimit="10" style="fill-rule:nonzero;clip-rule:evenodd;stroke-linecap:round;stroke-linejoin:round;" version="1.1" viewBox="0 0 32 21" width="100%" xml:space="preserve" xmlns="http://www.w3.org/2000/svg" xmlns:xlink="http://www.w3.org/1999/xlink">
<defs/>
<g id="Untitled">
<path d="M9.9 20.1C4.4 20.1 0 15.7 0 10.2C0 4.7 4.4 0.3 9.9 0.3L21.5 0.3C27 0.3 31.4 4.7 31.4 10.2C31.4 15.7 27 20.1 21.5 20.1L9.9 20.1M21.2 16.6C24.8 16.6 27.6 13.7 27.6 10.2C27.6 6.6 24.7 3.8 21.2 3.8L10.2 3.8C6.6 3.8 3.8 6.7 3.8 10.2C3.8 13.7 6.7 16.6 10.2 16.6L21.2 16.6" fill="#c74634" fill-rule="nonzero" opacity="1" stroke="none"/>
</g>
</svg>
