<?xml version="1.0" encoding="UTF-8" standalone="no"?>
<!DOCTYPE svg PUBLIC "-//W3C//DTD SVG 1.1//EN" "http://www.w3.org/Graphics/SVG/1.1/DTD/svg11.dtd">
<!-- Created with Vectornator (http://vectornator.io/) -->
<svg height="100%" stroke-miterlimit="10" style="fill-rule:nonzero;clip-rule:evenodd;stroke-linecap:round;stroke-linejoin:round;" version="1.1" viewBox="0 0 80.8 80.8" width="100%" xml:space="preserve" xmlns="http://www.w3.org/2000/svg" xmlns:xlink="http://www.w3.org/1999/xlink">
<defs/>
<g id="Page-1">
<g opacity="1">
<path d="M46.24 21.76L46.16 0.24L34.16 0.24L34.24 21.76L40.24 30L46.24 21.76Z" fill="#ffffff" fill-rule="evenodd" opacity="1" stroke="none"/>
<path d="M34.24 58.64L34.24 80.24L46.24 80.24L46.24 58.64L40.24 50.4L34.24 58.64Z" fill="#ffffff" fill-rule="evenodd" opacity="1" stroke="none"/>
<path d="M46.24 58.64L58.88 76.08L68.56 69.04L55.92 51.6L46.24 48.48L46.24 58.64Z" fill="#00f2e6" fill-rule="evenodd" opacity="1" stroke="none"/>
<path d="M34.24 21.76L21.52 4.32L11.84 11.36L24.48 28.8L34.24 31.92L34.24 21.76Z" fill="#00f2e6" fill-rule="evenodd" opacity="1" stroke="none"/>
<path d="M24.48 28.8L4 22.16L0.32 33.52L20.8 40.24L30.48 37.04L24.48 28.8Z" fill="#00b9f1" fill-rule="evenodd" opacity="1" stroke="none"/>
<path d="M49.92 43.36L55.92 51.6L76.4 58.24L80.08 46.88L59.6 40.24L49.92 43.36Z" fill="#00b9f1" fill-rule="evenodd" opacity="1" stroke="none"/>
<path d="M59.6 40.24L80.08 33.52L76.4 22.16L55.92 28.8L49.92 37.04L59.6 40.24Z" fill="#d63aff" fill-rule="evenodd" opacity="1" stroke="none"/>
<path d="M20.8 40.24L0.32 46.88L4 58.24L24.48 51.6L30.48 43.36L20.8 40.24Z" fill="#d63aff" fill-rule="evenodd" opacity="1" stroke="none"/>
<path d="M24.48 51.6L11.84 69.04L21.52 76.08L34.24 58.64L34.24 48.48L24.48 51.6Z" fill="#fb015b" fill-rule="evenodd" opacity="1" stroke="none"/>
<path d="M55.92 28.8L68.56 11.36L58.88 4.32L46.24 21.76L46.24 31.92L55.92 28.8Z" fill="#fb015b" fill-rule="evenodd" opacity="1" stroke="none"/>
</g>
</g>
</svg>
